<svg width="12" height="15" viewBox="0 0 12 15" fill="none" xmlns="http://www.w3.org/2000/svg">
<path d="M11.625 10.7225C11.625 10.7675 11.3548 11.7132 10.6793 12.7039C10.0939 13.5596 9.50845 14.3702 8.56275 14.4152C7.61705 14.4152 7.34685 13.8748 6.26605 13.8748C5.18525 13.8748 4.87001 14.4152 4.01437 14.4602C3.1137 14.5053 2.39317 13.5596 1.85277 12.7039C0.636875 10.9476 -0.263794 7.79532 0.952105 5.67872C1.53754 4.64297 2.61834 3.96747 3.78921 3.96747C4.68987 3.96747 5.5455 4.5529 6.0859 4.5529C6.6263 4.5529 7.66205 3.83237 8.74285 3.92243C9.1932 3.92243 10.4541 4.10257 11.2647 5.27343C11.2197 5.31847 9.7336 6.17412 9.77865 7.88537C9.77865 10.0019 11.58 10.7225 11.625 10.7225ZM8.02235 2.7966C8.5177 2.21117 8.83295 1.40057 8.74285 0.589966C8.06735 0.634999 7.21175 1.0403 6.71635 1.62573C6.26605 2.1211 5.86075 2.97673 5.99585 3.7423C6.7614 3.83237 7.52695 3.38203 8.02235 2.7966Z" fill="white"/>
</svg>
