<svg width="16" height="17" viewBox="0 0 16 17" fill="none" xmlns="http://www.w3.org/2000/svg">
<path d="M14.8571 8.49659C14.8571 8.03048 14.8185 7.5619 14.7362 7.10333H8.13811V9.74368H11.9166C11.7598 10.5952 11.2559 11.3485 10.5183 11.8272V13.5404H12.7725C14.0962 12.3461 14.8571 10.5826 14.8571 8.49659Z" fill="#4285F4"/>
<path d="M8.13811 15.1962C10.0248 15.1962 11.6158 14.5891 12.7751 13.541L10.5209 11.8278C9.89371 12.246 9.08406 12.4828 8.14069 12.4828C6.31577 12.4828 4.7684 11.2761 4.2132 9.65356H1.88697V11.4197C3.07451 13.7349 5.4932 15.1962 8.13811 15.1962Z" fill="#34A853"/>
<path d="M4.21057 9.6531C3.91755 8.80156 3.91755 7.87944 4.21057 7.0279V5.26184H1.88697C0.894802 7.19921 0.894802 9.48178 1.88697 11.4192L4.21057 9.6531Z" fill="#FBBC04"/>
<path d="M8.13811 4.19662C9.13543 4.18148 10.0993 4.54931 10.8216 5.22451L12.8188 3.26697C11.5542 2.10302 9.87571 1.46308 8.13811 1.48325C5.4932 1.48325 3.07451 2.94451 1.88697 5.26234L4.21063 7.02839C4.76326 5.40342 6.3132 4.19662 8.13811 4.19662Z" fill="#EA4335"/>
</svg>
