<svg width="52" height="27" viewBox="0 0 52 27" fill="none" xmlns="http://www.w3.org/2000/svg">
<g filter="url(#filter0_b_1_69)">
<path d="M11.0114 17.0399V9.62174H16.1839V11.0778H12.8044V12.5991H15.9195V14.0589H12.8044V15.5838H16.1839V17.0399H11.0114ZM24.4392 9.62174V17.0399H22.9179L19.9658 12.7585H19.9187V17.0399H18.1258V9.62174H19.6688L22.5883 13.8959H22.6498V9.62174H24.4392Z" fill="#ADADAD"/>
<g clip-path="url(#clip0_1_69)">
<path d="M35.074 7.77991C31.762 7.77991 29.08 10.4679 29.08 13.7799C29.08 17.0919 31.762 19.7799 35.074 19.7799C38.392 19.7799 41.08 17.0919 41.08 13.7799C41.08 10.4679 38.392 7.77991 35.074 7.77991ZM39.232 11.3799H37.462C37.27 10.6299 36.994 9.90991 36.634 9.24391C37.738 9.62191 38.656 10.3899 39.232 11.3799ZM35.08 9.00391C35.578 9.72391 35.968 10.5219 36.226 11.3799H33.934C34.192 10.5219 34.582 9.72391 35.08 9.00391ZM30.436 14.9799C30.34 14.5959 30.28 14.1939 30.28 13.7799C30.28 13.3659 30.34 12.9639 30.436 12.5799H32.464C32.416 12.9759 32.38 13.3719 32.38 13.7799C32.38 14.1879 32.416 14.5839 32.464 14.9799H30.436ZM30.928 16.1799H32.698C32.89 16.9299 33.166 17.6499 33.526 18.3159C32.422 17.9379 31.504 17.1759 30.928 16.1799ZM32.698 11.3799H30.928C31.504 10.3839 32.422 9.62191 33.526 9.24391C33.166 9.90991 32.89 10.6299 32.698 11.3799ZM35.08 18.5559C34.582 17.8359 34.192 17.0379 33.934 16.1799H36.226C35.968 17.0379 35.578 17.8359 35.08 18.5559ZM36.484 14.9799H33.676C33.622 14.5839 33.58 14.1879 33.58 13.7799C33.58 13.3719 33.622 12.9699 33.676 12.5799H36.484C36.538 12.9699 36.58 13.3719 36.58 13.7799C36.58 14.1879 36.538 14.5839 36.484 14.9799ZM36.634 18.3159C36.994 17.6499 37.27 16.9299 37.462 16.1799H39.232C38.656 17.1699 37.738 17.9379 36.634 18.3159ZM37.696 14.9799C37.744 14.5839 37.78 14.1879 37.78 13.7799C37.78 13.3719 37.744 12.9759 37.696 12.5799H39.724C39.82 12.9639 39.88 13.3659 39.88 13.7799C39.88 14.1939 39.82 14.5959 39.724 14.9799H37.696Z" fill="#ADADAD"/>
</g>
<rect x="0.220001" y="0.629883" width="51.09" height="26.31" rx="4.8" fill="#EBEBEB" fill-opacity="0.2"/>
</g>
<defs>
<filter id="filter0_b_1_69" x="-11.78" y="-11.3701" width="75.09" height="50.3101" filterUnits="userSpaceOnUse" color-interpolation-filters="sRGB">
<feFlood flood-opacity="0" result="BackgroundImageFix"/>
<feGaussianBlur in="BackgroundImageFix" stdDeviation="6"/>
<feComposite in2="SourceAlpha" operator="in" result="effect1_backgroundBlur_1_69"/>
<feBlend mode="normal" in="SourceGraphic" in2="effect1_backgroundBlur_1_69" result="shape"/>
</filter>
<clipPath id="clip0_1_69">
<rect width="12" height="12" fill="white" transform="translate(29.08 7.77991)"/>
</clipPath>
</defs>
</svg>
