<svg width="169" height="65" viewBox="0 0 169 65" fill="none" xmlns="http://www.w3.org/2000/svg">
<g clip-path="url(#clip0_1_7)">
<path d="M29.0256 8.67267L0.384277 21.9375L7.5207 49.0992L12.9521 48.4322L11.4586 31.3538L13.242 30.5593L16.3216 48.0175L25.6039 46.8779L23.9539 28.0275L25.7199 27.2416L29.1068 46.4486L38.4964 45.2944L36.6898 24.6317L38.4761 23.8369L42.1792 44.842L51.4615 43.7023V14.293L29.0256 8.67267Z" fill="#FCFCFC"/>
<path d="M29.6984 49.8677L30.1711 52.5416L51.461 56.0913V47.194L29.71 49.8677H29.6984Z" fill="#FCFCFC"/>
<path d="M71.5975 44.294V47.9567H76.1124C76.1129 48.6995 75.9211 49.4298 75.5556 50.0766C75.1736 50.721 74.6083 51.2368 73.9317 51.5585C73.1229 51.9281 72.2399 52.1067 71.3511 52.0805C70.3247 52.109 69.3137 51.8258 68.4513 51.2685C67.6089 50.6838 66.9591 49.8622 66.5838 48.9078C66.116 47.7146 65.8922 46.4395 65.9256 45.1582C65.8914 43.8867 66.1205 42.6219 66.5983 41.4432C66.9891 40.5039 67.6439 39.6979 68.4832 39.1232C69.3295 38.5737 70.322 38.2927 71.3307 38.317C71.856 38.3123 72.3792 38.3817 72.885 38.5228C73.335 38.6518 73.7597 38.8568 74.1406 39.1289C74.5023 39.3895 74.8145 39.7126 75.0627 40.0831C75.3221 40.4792 75.5178 40.9138 75.6426 41.3707H80.6505C80.5194 40.3197 80.1782 39.3058 79.6472 38.3895C79.1188 37.4853 78.4253 36.6885 77.6028 36.0403C76.741 35.3666 75.7687 34.8474 74.7292 34.5063C73.6003 34.1388 72.4193 33.9567 71.2322 33.9668C69.8431 33.9554 68.4648 34.2113 67.1725 34.7209C65.9309 35.2154 64.8081 35.9675 63.8784 36.9278C62.9056 37.9426 62.1542 39.1484 61.6718 40.4687C61.1207 41.9968 60.8524 43.6123 60.88 45.2364C60.88 47.5448 61.3189 49.5352 62.1965 51.2075C63.0264 52.8184 64.3044 54.1548 65.8763 55.056C67.4691 55.9059 69.2389 56.3706 71.0437 56.4129C72.8485 56.4553 74.6381 56.0739 76.269 55.2995C77.6801 54.5835 78.8549 53.476 79.653 52.1096C80.4745 50.7194 80.8844 49.0568 80.8824 47.1214V44.291L71.5975 44.294Z" fill="#FCFCFC"/>
<path d="M133.952 56.129V34.251H148.935V38.2995H138.897V43.16H147.013V47.2085H138.897V52.0805H148.959V56.129H133.952Z" fill="#FCFCFC"/>
<path d="M163.48 40.6718C163.459 40.2957 163.356 39.9289 163.179 39.5965C163.001 39.2641 162.754 38.974 162.454 38.7461C161.848 38.285 161.004 38.0558 159.935 38.0558C159.317 38.0353 158.701 38.1337 158.119 38.3459C157.681 38.5057 157.296 38.785 157.008 39.1521C156.759 39.4876 156.624 39.8942 156.623 40.3121C156.61 40.6452 156.689 40.9756 156.852 41.2663C157.024 41.5551 157.263 41.7988 157.547 41.9768C157.882 42.1938 158.242 42.3682 158.62 42.4959C159.062 42.6494 159.51 42.7762 159.966 42.8758L161.888 43.3223C162.831 43.5228 163.749 43.8222 164.629 44.2156C165.392 44.5557 166.096 45.0137 166.717 45.5727C167.285 46.0902 167.737 46.7216 168.045 47.4259C168.367 48.1858 168.526 49.0048 168.511 49.8301C168.545 51.0792 168.186 52.3071 167.485 53.342C166.746 54.3698 165.723 55.1607 164.542 55.6185C163.07 56.1871 161.501 56.4591 159.923 56.419C158.321 56.4532 156.729 56.1764 155.234 55.6041C153.975 55.1147 152.891 54.2579 152.125 53.1448C151.385 52.0506 150.999 50.6855 150.965 49.0499H155.729C155.736 49.6816 155.935 50.2963 156.3 50.8115C156.666 51.3268 157.18 51.7179 157.774 51.9326C158.445 52.1873 159.156 52.3113 159.874 52.2981C160.531 52.3123 161.186 52.2052 161.805 51.9819C162.294 51.8093 162.727 51.509 163.06 51.1118C163.354 50.7425 163.515 50.2847 163.515 49.8127C163.52 49.3894 163.374 48.9783 163.104 48.6527C162.772 48.2912 162.362 48.0122 161.904 47.8378C161.257 47.574 160.588 47.3664 159.905 47.2171L157.565 46.6517C155.699 46.2069 154.228 45.5052 153.149 44.5462C152.07 43.5873 151.534 42.288 151.543 40.6486C151.508 39.3905 151.887 38.1559 152.622 37.1337C153.39 36.0942 154.424 35.2815 155.617 34.7818C156.991 34.1988 158.473 33.9112 159.966 33.9379C161.453 33.9045 162.928 34.1924 164.292 34.7818C165.452 35.286 166.447 36.1035 167.167 37.1423C167.858 38.1832 168.222 39.4076 168.21 40.6572L163.48 40.6718Z" fill="#FCFCFC"/>
<path d="M130.425 56.129H125.534V39.4972L125.032 39.4915L120.09 56.129H115.202L110.394 39.4915L109.771 39.4972V56.129H104.879V34.251H113.192L117.391 48.9137H117.899L122.097 34.251H130.425V56.129Z" fill="#FCFCFC"/>
<path d="M97.1766 56.1289H102.474L95.1294 34.2539H88.4164L81.0598 56.1289H86.3664L87.7959 51.3323H95.747L97.1766 56.1289ZM88.9326 47.5159L91.3163 39.4972H92.2152L94.6103 47.5159H88.9326Z" fill="#FCFCFC"/>
<path d="M87.2217 8.87567H82.2777V30.7536H87.2217V8.87567Z" fill="#FCFCFC"/>
<path d="M110.701 19.8146C110.701 22.2159 110.246 24.2459 109.335 25.9047C108.49 27.5062 107.202 28.8317 105.627 29.7241C104.006 30.5886 102.198 31.0407 100.362 31.0407C98.5258 31.0407 96.7178 30.5886 95.0977 29.7241C93.5214 28.8283 92.2345 27.4999 91.3889 25.896C90.4784 24.2217 90.0231 22.1918 90.0231 19.8059C90.0231 17.4202 90.4784 15.3853 91.3889 13.7014C92.2329 12.1047 93.5157 10.7825 95.0861 9.89069C96.7069 9.02823 98.5146 8.57716 100.351 8.57716C102.187 8.57716 103.994 9.02823 105.615 9.89069C107.191 10.7831 108.478 12.1086 109.324 13.71C110.234 15.3805 110.69 17.4153 110.69 19.8146H110.701ZM105.659 19.8146C105.696 18.5274 105.476 17.2457 105.012 16.0446C104.644 15.1058 104.005 14.298 103.176 13.7246C102.328 13.2031 101.352 12.927 100.356 12.927C99.3608 12.927 98.3846 13.2031 97.5364 13.7246C96.7064 14.2985 96.0655 15.1059 95.6951 16.0446C94.8229 18.4823 94.8229 21.1469 95.6951 23.5847C96.0643 24.524 96.7054 25.3319 97.5364 25.9047C98.3846 26.4262 99.3608 26.7023 100.356 26.7023C101.352 26.7023 102.328 26.4262 103.176 25.9047C104.006 25.3322 104.646 24.5241 105.012 23.5847C105.476 22.3835 105.696 21.1018 105.659 19.8146Z" fill="#FCFCFC"/>
<path d="M71.8874 23.1264L74.4277 30.7536H79.853L77.0287 22.5378H73.1924L72.9632 21.8302C73.6941 21.6881 74.9438 21.4676 76.0516 20.7137C76.8274 20.1858 77.4636 19.4775 77.9055 18.6496C78.3474 17.8217 78.5819 16.8989 78.5888 15.9605C78.6219 14.6642 78.2948 13.3842 77.6435 12.2629C77.0069 11.1772 76.0623 10.3051 74.9293 9.75728C73.6008 9.14203 72.1475 8.84418 70.6841 8.88727H61.8602V30.7536H66.8072V23.1264H71.8874ZM71.7947 18.5995C71.1213 18.8471 70.4066 18.9633 69.6895 18.9417H66.8072V12.8922H69.6808C70.3985 12.8716 71.113 12.9938 71.7831 13.2518C72.3129 13.4626 72.7605 13.839 73.0589 14.3248C73.3633 14.8147 73.5148 15.3841 73.494 15.9605C73.5175 16.5281 73.3679 17.0895 73.0648 17.57C72.7648 18.0423 72.3189 18.4038 71.7947 18.5995Z" fill="#FCFCFC"/>
<path d="M111.168 8.87568V12.9357H119.665L119.897 13.6462C119.178 13.7854 117.963 14 116.872 14.7193V30.7594H121.764V12.9241H127.454V8.86407L111.168 8.87568Z" fill="#FCFCFC"/>
</g>
<defs>
<clipPath id="clip0_1_7">
<rect width="168.66" height="64" fill="white" transform="translate(0 0.5)"/>
</clipPath>
</defs>
</svg>
